<?xml version="1.0" encoding="UTF-8"?>
<!DOCTYPE svg PUBLIC "-//W3C//DTD SVG 1.1//EN" "http://www.w3.org/Graphics/SVG/1.1/DTD/svg11.dtd">
<!-- Creator: CorelDRAW 2020 (64-Bit Evaluation Version) -->
<svg xmlns="http://www.w3.org/2000/svg" xml:space="preserve" width="81.9562mm" height="86.4541mm" version="1.1" style="shape-rendering:geometricPrecision; text-rendering:geometricPrecision; image-rendering:optimizeQuality; fill-rule:evenodd; clip-rule:evenodd"
viewBox="0 0 910.37 960.33"
 xmlns:xlink="http://www.w3.org/1999/xlink"
 xmlns:xodm="http://www.corel.com/coreldraw/odm/2003">
 <defs>
  <style type="text/css">
   <![CDATA[
    .str1 {stroke:#F14900;stroke-width:2.22;stroke-miterlimit:22.9256}
    .str0 {stroke:#F14900;stroke-width:2.22;stroke-miterlimit:22.9256}
    .fil1 {fill:#F14900}
    .fil0 {fill:#F14900}
    .fil2 {fill:#FEFEFE;fill-rule:nonzero}
   ]]>
  </style>
 </defs>
 <g id="Layer_x0020_1">
  <metadata id="CorelCorpID_0Corel-Layer"/>
  <g id="_1954323096272">
   <g>
    <rect class="fil0 str0" x="227.41" y="1.11" width="681.85" height="681.85" rx="105.42" ry="105.42"/>
    <g>
     <path class="fil1 str1" d="M330.93 4.2c156.79,0 313.58,0 470.37,0 57.95,0 105.37,47.42 105.37,105.37 0,156.92 0,313.84 0,470.76 0,57.95 -47.42,105.37 -105.37,105.37 -156.92,0 -313.84,0 -470.76,0 -57.95,0 -105.37,-47.42 -105.37,-105.37 0,-156.79 0,-313.58 0,-470.37 0,-58.17 47.59,-105.75 105.75,-105.75z"/>
     <path class="fil1 str1" d="M329.02 7.28c156.58,0 313.16,0 469.75,0 57.92,0 105.32,47.39 105.32,105.31 0,156.84 0,313.68 0,470.52 0,57.92 -47.39,105.32 -105.32,105.32 -156.84,0 -313.68,0 -470.51,0 -57.92,0 -105.32,-47.39 -105.32,-105.32 0,-156.58 0,-313.16 0,-469.75 0,-58.35 47.74,-106.08 106.09,-106.08z"/>
     <path class="fil1 str1" d="M327.11 10.36c156.37,0 312.75,0 469.12,0 57.89,0 105.26,47.37 105.26,105.26 0,156.76 0,313.52 0,470.27 0,57.89 -47.37,105.26 -105.26,105.26 -156.76,0 -313.52,0 -470.27,0 -57.89,0 -105.26,-47.37 -105.26,-105.26 0,-156.37 0,-312.75 0,-469.12 0,-58.53 47.89,-106.42 106.42,-106.42z"/>
     <path class="fil1 str1" d="M325.2 13.45c156.17,0 312.33,0 468.49,0 57.86,0 105.21,47.34 105.21,105.21 0,156.68 0,313.36 0,470.03 0,57.86 -47.34,105.21 -105.21,105.21 -156.68,0 -313.36,0 -470.03,0 -57.86,0 -105.21,-47.34 -105.21,-105.21 0,-156.16 0,-312.33 0,-468.49 0,-58.71 48.04,-106.75 106.75,-106.75z"/>
     <path class="fil1 str1" d="M323.29 16.53c155.96,0 311.91,0 467.87,0 57.83,0 105.15,47.32 105.15,105.15 0,156.6 0,313.19 0,469.79 0,57.84 -47.32,105.15 -105.15,105.15 -156.6,0 -313.19,0 -469.79,0 -57.83,0 -105.15,-47.32 -105.15,-105.15 0,-155.96 0,-311.91 0,-467.87 0,-58.89 48.19,-107.08 107.08,-107.08z"/>
     <path class="fil1 str1" d="M321.38 19.62c155.75,0 311.49,0 467.24,0 57.8,0 105.1,47.29 105.1,105.1 0,156.52 0,313.03 0,469.55 0,57.81 -47.29,105.1 -105.1,105.1 -156.52,0 -313.03,0 -469.55,0 -57.81,0 -105.1,-47.29 -105.1,-105.1 0,-155.75 0,-311.49 0,-467.24 0,-59.08 48.33,-107.41 107.41,-107.41z"/>
     <path class="fil1 str1" d="M319.47 22.7c155.54,0 311.08,0 466.61,0 57.78,0 105.05,47.27 105.05,105.05 0,156.44 0,312.87 0,469.31 0,57.78 -47.27,105.05 -105.05,105.05 -156.44,0 -312.87,0 -469.31,0 -57.78,0 -105.05,-47.27 -105.05,-105.05 0,-155.54 0,-311.08 0,-466.61 0,-59.26 48.48,-107.74 107.74,-107.74z"/>
     <path class="fil1 str1" d="M317.56 25.79c155.33,0 310.66,0 465.99,0 57.75,0 104.99,47.25 104.99,104.99 0,156.36 0,312.71 0,469.07 0,57.75 -47.25,104.99 -104.99,104.99 -156.36,0 -312.71,0 -469.07,0 -57.75,0 -104.99,-47.25 -104.99,-104.99 0,-155.33 0,-310.66 0,-465.99 0,-59.44 48.63,-108.07 108.07,-108.07z"/>
     <path class="fil1 str1" d="M315.65 28.87c155.12,0 310.24,0 465.36,0 57.72,0 104.94,47.22 104.94,104.94 0,156.28 0,312.55 0,468.83 0,57.72 -47.22,104.94 -104.94,104.94 -156.28,0 -312.55,0 -468.83,0 -57.72,0 -104.94,-47.22 -104.94,-104.94 0,-155.12 0,-310.24 0,-465.36 0,-59.62 48.78,-108.4 108.4,-108.4z"/>
     <path class="fil1 str1" d="M313.74 31.96c154.91,0 309.82,0 464.74,0 57.69,0 104.88,47.2 104.88,104.88 0,156.2 0,312.39 0,468.59 0,57.69 -47.2,104.88 -104.88,104.88 -156.2,0 -312.39,0 -468.59,0 -57.69,0 -104.88,-47.2 -104.88,-104.88 0,-154.91 0,-309.82 0,-464.74 0,-59.8 48.93,-108.73 108.73,-108.73z"/>
     <path class="fil1 str1" d="M311.83 35.04c154.7,0 309.41,0 464.11,0 57.66,0 104.83,47.17 104.83,104.83 0,156.12 0,312.23 0,468.35 0,57.66 -47.17,104.83 -104.83,104.83 -156.11,0 -312.23,0 -468.34,0 -57.66,0 -104.83,-47.17 -104.83,-104.83 0,-154.7 0,-309.41 0,-464.11 0,-59.99 49.08,-109.06 109.06,-109.06z"/>
     <path class="fil1 str1" d="M309.92 38.12c154.49,0 308.99,0 463.48,0 57.63,0 104.78,47.15 104.78,104.78 0,156.04 0,312.07 0,468.1 0,57.63 -47.15,104.78 -104.78,104.78 -156.04,0 -312.07,0 -468.1,0 -57.63,0 -104.78,-47.15 -104.78,-104.78 0,-154.49 0,-308.99 0,-463.48 0,-60.17 49.23,-109.39 109.39,-109.39z"/>
     <path class="fil1 str1" d="M308.01 41.21c154.29,0 308.57,0 462.86,0 57.6,0 104.72,47.12 104.72,104.72 0,155.95 0,311.91 0,467.86 0,57.6 -47.12,104.72 -104.72,104.72 -155.95,0 -311.91,0 -467.86,0 -57.6,0 -104.72,-47.12 -104.72,-104.72 0,-154.29 0,-308.57 0,-462.86 0,-60.35 49.38,-109.73 109.73,-109.73z"/>
     <path class="fil1 str1" d="M306.1 44.29c154.08,0 308.15,0 462.23,0 57.57,0 104.67,47.1 104.67,104.67 0,155.87 0,311.75 0,467.62 0,57.57 -47.1,104.67 -104.67,104.67 -155.87,0 -311.75,0 -467.62,0 -57.57,0 -104.67,-47.1 -104.67,-104.67 0,-154.08 0,-308.15 0,-462.23 0,-60.53 49.53,-110.06 110.06,-110.06z"/>
     <path class="fil1 str1" d="M304.19 47.38c153.87,0 307.74,0 461.61,0 57.54,0 104.61,47.08 104.61,104.61 0,155.79 0,311.59 0,467.38 0,57.54 -47.08,104.61 -104.61,104.61 -155.79,0 -311.59,0 -467.38,0 -57.54,0 -104.61,-47.08 -104.61,-104.61 0,-153.87 0,-307.74 0,-461.61 0,-60.71 49.67,-110.39 110.39,-110.39z"/>
     <path class="fil1 str1" d="M302.28 50.46c153.66,0 307.32,0 460.98,0 57.51,0 104.56,47.05 104.56,104.56 0,155.71 0,311.43 0,467.14 0,57.51 -47.05,104.56 -104.56,104.56 -155.71,0 -311.43,0 -467.14,0 -57.51,0 -104.56,-47.05 -104.56,-104.56 0,-153.66 0,-307.32 0,-460.98 0,-60.9 49.82,-110.72 110.72,-110.72z"/>
     <path class="fil1 str1" d="M300.37 53.55c153.45,0 306.9,0 460.35,0 57.48,0 104.51,47.03 104.51,104.51 0,155.63 0,311.27 0,466.9 0,57.48 -47.03,104.51 -104.51,104.51 -155.63,0 -311.27,0 -466.9,0 -57.48,0 -104.51,-47.03 -104.51,-104.51 0,-153.45 0,-306.9 0,-460.35 0,-61.08 49.97,-111.05 111.05,-111.05z"/>
     <path class="fil1 str1" d="M298.46 56.63c153.24,0 306.49,0 459.73,0 57.45,0 104.45,47 104.45,104.45 0,155.55 0,311.1 0,466.66 0,57.45 -47,104.45 -104.45,104.45 -155.55,0 -311.1,0 -466.66,0 -57.45,0 -104.45,-47 -104.45,-104.45 0,-153.24 0,-306.49 0,-459.73 0,-61.26 50.12,-111.38 111.38,-111.38z"/>
     <path class="fil1 str1" d="M296.55 59.72c153.03,0 306.07,0 459.1,0 57.42,0 104.4,46.98 104.4,104.4 0,155.47 0,310.94 0,466.41 0,57.42 -46.98,104.4 -104.4,104.4 -155.47,0 -310.94,0 -466.41,0 -57.42,0 -104.4,-46.98 -104.4,-104.4 0,-153.03 0,-306.07 0,-459.1 0,-61.44 50.27,-111.71 111.71,-111.71z"/>
     <path class="fil1 str1" d="M294.64 62.8c152.82,0 305.65,0 458.48,0 57.39,0 104.34,46.95 104.34,104.34 0,155.39 0,310.78 0,466.17 0,57.39 -46.95,104.34 -104.34,104.34 -155.39,0 -310.78,0 -466.17,0 -57.39,0 -104.34,-46.95 -104.34,-104.34 0,-152.82 0,-305.65 0,-458.47 0,-61.62 50.42,-112.04 112.04,-112.04z"/>
     <path class="fil1 str1" d="M292.73 65.88c152.62,0 305.23,0 457.85,0 57.36,0 104.29,46.93 104.29,104.29 0,155.31 0,310.62 0,465.93 0,57.36 -46.93,104.29 -104.29,104.29 -155.31,0 -310.62,0 -465.93,0 -57.36,0 -104.29,-46.93 -104.29,-104.29 0,-152.62 0,-305.23 0,-457.85 0,-61.81 50.57,-112.37 112.37,-112.37z"/>
     <path class="fil1 str1" d="M290.82 68.97c152.41,0 304.82,0 457.22,0 57.33,0 104.24,46.91 104.24,104.24 0,155.23 0,310.46 0,465.69 0,57.33 -46.91,104.24 -104.24,104.24 -155.23,0 -310.46,0 -465.69,0 -57.33,0 -104.24,-46.91 -104.24,-104.24 0,-152.41 0,-304.81 0,-457.22 0,-61.99 50.72,-112.7 112.71,-112.7z"/>
     <path class="fil1 str1" d="M288.91 72.05c152.2,0 304.4,0 456.6,0 57.3,0 104.18,46.88 104.18,104.18 0,155.15 0,310.3 0,465.45 0,57.3 -46.88,104.18 -104.18,104.18 -155.15,0 -310.3,0 -465.45,0 -57.3,0 -104.18,-46.88 -104.18,-104.18 0,-152.2 0,-304.4 0,-456.6 0,-62.17 50.87,-113.04 113.04,-113.04z"/>
     <path class="fil1 str1" d="M287 75.14c151.99,0 303.98,0 455.97,0 57.27,0 104.13,46.86 104.13,104.13 0,155.07 0,310.14 0,465.21 0,57.27 -46.86,104.13 -104.13,104.13 -155.07,0 -310.14,0 -465.21,0 -57.27,0 -104.13,-46.86 -104.13,-104.13 0,-151.99 0,-303.98 0,-455.97 0,-62.35 51.01,-113.37 113.37,-113.37z"/>
     <path class="fil1 str1" d="M285.09 78.22c151.78,0 303.56,0 455.34,0 57.24,0 104.07,46.83 104.07,104.07 0,154.99 0,309.98 0,464.97 0,57.24 -46.83,104.07 -104.07,104.07 -154.99,0 -309.98,0 -464.97,0 -57.24,0 -104.07,-46.83 -104.07,-104.07 0,-151.78 0,-303.56 0,-455.34 0,-62.53 51.16,-113.7 113.7,-113.7z"/>
     <path class="fil1 str1" d="M283.19 81.31c151.57,0 303.15,0 454.72,0 57.21,0 104.02,46.81 104.02,104.02 0,154.91 0,309.82 0,464.73 0,57.21 -46.81,104.02 -104.02,104.02 -154.91,0 -309.82,0 -464.73,0 -57.21,0 -104.02,-46.81 -104.02,-104.02 0,-151.57 0,-303.15 0,-454.72 0,-62.72 51.31,-114.03 114.03,-114.03z"/>
     <path class="fil1 str1" d="M281.28 84.39c151.36,0 302.73,0 454.09,0 57.18,0 103.97,46.78 103.97,103.97 0,154.83 0,309.66 0,464.49 0,57.18 -46.78,103.97 -103.97,103.97 -154.83,0 -309.66,0 -464.49,0 -57.18,0 -103.97,-46.78 -103.97,-103.97 0,-151.36 0,-302.73 0,-454.09 0,-62.9 51.46,-114.36 114.36,-114.36z"/>
     <path class="fil1 str1" d="M279.37 87.48c151.16,0 302.31,0 453.47,0 57.15,0 103.91,46.76 103.91,103.91 0,154.75 0,309.5 0,464.24 0,57.15 -46.76,103.91 -103.91,103.91 -154.75,0 -309.5,0 -464.24,0 -57.15,0 -103.91,-46.76 -103.91,-103.91 0,-151.16 0,-302.31 0,-453.47 0,-63.08 51.61,-114.69 114.69,-114.69z"/>
     <path class="fil1 str1" d="M277.46 90.56c150.95,0 301.89,0 452.84,0 57.12,0 103.86,46.73 103.86,103.86 0,154.67 0,309.34 0,464 0,57.12 -46.74,103.86 -103.86,103.86 -154.67,0 -309.34,0 -464,0 -57.12,0 -103.86,-46.74 -103.86,-103.86 0,-150.95 0,-301.89 0,-452.84 0,-63.26 51.76,-115.02 115.02,-115.02z"/>
     <path class="fil1 str1" d="M275.55 93.64c150.74,0 301.48,0 452.21,0 57.09,0 103.8,46.71 103.8,103.8 0,154.59 0,309.17 0,463.76 0,57.09 -46.71,103.8 -103.8,103.8 -154.59,0 -309.17,0 -463.76,0 -57.09,0 -103.8,-46.71 -103.8,-103.8 0,-150.74 0,-301.48 0,-452.21 0,-63.44 51.91,-115.35 115.35,-115.35z"/>
     <path class="fil1 str1" d="M273.64 96.73c150.53,0 301.06,0 451.59,0 57.06,0 103.75,46.69 103.75,103.75 0,154.51 0,309.01 0,463.52 0,57.06 -46.69,103.75 -103.75,103.75 -154.51,0 -309.01,0 -463.52,0 -57.06,0 -103.75,-46.69 -103.75,-103.75 0,-150.53 0,-301.06 0,-451.59 0,-63.63 52.06,-115.68 115.68,-115.68z"/>
     <path class="fil1 str1" d="M271.73 99.81c150.32,0 300.64,0 450.96,0 57.03,0 103.7,46.66 103.7,103.7 0,154.43 0,308.85 0,463.28 0,57.03 -46.66,103.7 -103.7,103.7 -154.43,0 -308.85,0 -463.28,0 -57.03,0 -103.7,-46.66 -103.7,-103.7 0,-150.32 0,-300.64 0,-450.96 0,-63.81 52.21,-116.01 116.01,-116.01z"/>
     <path class="fil1 str1" d="M269.82 102.9c150.11,0 300.22,0 450.33,0 57,0 103.64,46.64 103.64,103.64 0,154.35 0,308.69 0,463.04 0,57 -46.64,103.64 -103.64,103.64 -154.35,0 -308.69,0 -463.04,0 -57,0 -103.64,-46.64 -103.64,-103.64 0,-150.11 0,-300.22 0,-450.33 0,-63.99 52.35,-116.35 116.35,-116.35z"/>
     <path class="fil1 str1" d="M267.91 105.98c149.9,0 299.81,0 449.71,0 56.97,0 103.59,46.61 103.59,103.59 0,154.27 0,308.53 0,462.8 0,56.97 -46.61,103.59 -103.59,103.59 -154.26,0 -308.53,0 -462.8,0 -56.97,0 -103.59,-46.61 -103.59,-103.59 0,-149.9 0,-299.81 0,-449.71 0,-64.17 52.5,-116.68 116.68,-116.68z"/>
     <path class="fil1 str1" d="M266 109.07c149.69,0 299.39,0 449.08,0 56.94,0 103.53,46.59 103.53,103.53 0,154.19 0,308.37 0,462.56 0,56.94 -46.59,103.53 -103.53,103.53 -154.19,0 -308.37,0 -462.56,0 -56.95,0 -103.53,-46.59 -103.53,-103.53 0,-149.69 0,-299.39 0,-449.08 0,-64.35 52.65,-117.01 117.01,-117.01z"/>
     <path class="fil1 str1" d="M264.09 112.15c149.49,0 298.97,0 448.46,0 56.91,0 103.48,46.57 103.48,103.48 0,154.11 0,308.21 0,462.31 0,56.92 -46.57,103.48 -103.48,103.48 -154.1,0 -308.21,0 -462.31,0 -56.92,0 -103.48,-46.56 -103.48,-103.48 0,-149.48 0,-298.97 0,-448.46 0,-64.54 52.8,-117.34 117.34,-117.34z"/>
     <path class="fil1 str1" d="M262.18 115.24c149.28,0 298.55,0 447.83,0 56.89,0 103.43,46.54 103.43,103.43 0,154.02 0,308.05 0,462.07 0,56.89 -46.54,103.43 -103.43,103.43 -154.02,0 -308.05,0 -462.07,0 -56.89,0 -103.43,-46.54 -103.43,-103.43 0,-149.28 0,-298.55 0,-447.83 0,-64.72 52.95,-117.67 117.67,-117.67z"/>
     <path class="fil1 str1" d="M260.27 118.32c149.07,0 298.14,0 447.2,0 56.86,0 103.37,46.52 103.37,103.37 0,153.94 0,307.89 0,461.83 0,56.86 -46.52,103.37 -103.37,103.37 -153.94,0 -307.89,0 -461.83,0 -56.86,0 -103.37,-46.52 -103.37,-103.37 0,-149.07 0,-298.14 0,-447.2 0,-64.9 53.1,-118 118,-118z"/>
     <path class="fil1 str1" d="M258.36 121.41c148.86,0 297.72,0 446.58,0 56.83,0 103.32,46.49 103.32,103.32 0,153.86 0,307.73 0,461.59 0,56.83 -46.49,103.32 -103.32,103.32 -153.86,0 -307.73,0 -461.59,0 -56.83,0 -103.32,-46.49 -103.32,-103.32 0,-148.86 0,-297.72 0,-446.58 0,-65.08 53.25,-118.33 118.33,-118.33z"/>
     <path class="fil1 str1" d="M256.45 124.49c148.65,0 297.3,0 445.95,0 56.8,0 103.26,46.47 103.26,103.26 0,153.78 0,307.57 0,461.35 0,56.8 -46.47,103.26 -103.26,103.26 -153.78,0 -307.57,0 -461.35,0 -56.8,0 -103.26,-46.47 -103.26,-103.26 0,-148.65 0,-297.3 0,-445.95 0,-65.27 53.4,-118.66 118.66,-118.66z"/>
     <path class="fil1 str1" d="M254.54 127.57c148.44,0 296.88,0 445.33,0 56.77,0 103.21,46.44 103.21,103.21 0,153.7 0,307.41 0,461.11 0,56.77 -46.44,103.21 -103.21,103.21 -153.7,0 -307.41,0 -461.11,0 -56.77,0 -103.21,-46.44 -103.21,-103.21 0,-148.44 0,-296.88 0,-445.33 0,-65.45 53.55,-118.99 118.99,-118.99z"/>
     <path class="fil1 str1" d="M252.63 130.66c148.23,0 296.47,0 444.7,0 56.74,0 103.16,46.42 103.16,103.16 0,153.62 0,307.25 0,460.87 0,56.74 -46.42,103.16 -103.16,103.16 -153.62,0 -307.24,0 -460.87,0 -56.74,0 -103.16,-46.42 -103.16,-103.16 0,-148.23 0,-296.47 0,-444.7 0,-65.63 53.69,-119.32 119.32,-119.32z"/>
     <path class="fil1 str1" d="M250.72 133.74c148.03,0 296.05,0 444.07,0 56.71,0 103.1,46.39 103.1,103.1 0,153.54 0,307.08 0,460.63 0,56.71 -46.4,103.1 -103.1,103.1 -153.54,0 -307.08,0 -460.63,0 -56.71,0 -103.1,-46.4 -103.1,-103.1 0,-148.03 0,-296.05 0,-444.07 0,-65.81 53.84,-119.65 119.65,-119.65z"/>
     <path class="fil1 str1" d="M248.81 136.83c147.82,0 295.63,0 443.45,0 56.68,0 103.05,46.37 103.05,103.05 0,153.46 0,306.92 0,460.39 0,56.68 -46.37,103.05 -103.05,103.05 -153.46,0 -306.92,0 -460.39,0 -56.68,0 -103.05,-46.37 -103.05,-103.05 0,-147.82 0,-295.63 0,-443.45 0,-65.99 53.99,-119.99 119.99,-119.99z"/>
     <path class="fil1 str1" d="M246.9 139.91c147.61,0 295.21,0 442.82,0 56.65,0 102.99,46.35 102.99,102.99 0,153.38 0,306.76 0,460.14 0,56.65 -46.35,102.99 -102.99,102.99 -153.38,0 -306.76,0 -460.14,0 -56.65,0 -102.99,-46.35 -102.99,-102.99 0,-147.61 0,-295.22 0,-442.82 0,-66.17 54.14,-120.32 120.32,-120.32z"/>
     <path class="fil1 str1" d="M244.99 143c147.4,0 294.8,0 442.2,0 56.62,0 102.94,46.32 102.94,102.94 0,153.3 0,306.6 0,459.9 0,56.62 -46.32,102.94 -102.94,102.94 -153.3,0 -306.6,0 -459.9,0 -56.62,0 -102.94,-46.32 -102.94,-102.94 0,-147.4 0,-294.8 0,-442.2 0,-66.36 54.29,-120.65 120.65,-120.65z"/>
     <path class="fil1 str1" d="M243.08 146.08c147.19,0 294.38,0 441.57,0 56.59,0 102.89,46.3 102.89,102.89 0,153.22 0,306.44 0,459.66 0,56.59 -46.3,102.89 -102.89,102.89 -153.22,0 -306.44,0 -459.66,0 -56.59,0 -102.89,-46.3 -102.89,-102.89 0,-147.19 0,-294.38 0,-441.57 0,-66.54 54.44,-120.98 120.98,-120.98z"/>
     <path class="fil1 str1" d="M241.17 149.17c146.98,0 293.96,0 440.94,0 56.56,0 102.83,46.27 102.83,102.83 0,153.14 0,306.28 0,459.42 0,56.56 -46.27,102.83 -102.83,102.83 -153.14,0 -306.28,0 -459.42,0 -56.56,0 -102.83,-46.27 -102.83,-102.83 0,-146.98 0,-293.96 0,-440.94 0,-66.72 54.59,-121.31 121.31,-121.31z"/>
     <path class="fil1 str1" d="M239.26 152.25c146.77,0 293.54,0 440.32,0 56.53,0 102.78,46.25 102.78,102.78 0,153.06 0,306.12 0,459.18 0,56.53 -46.25,102.78 -102.78,102.78 -153.06,0 -306.12,0 -459.18,0 -56.53,0 -102.78,-46.25 -102.78,-102.78 0,-146.77 0,-293.54 0,-440.32 0,-66.9 54.74,-121.64 121.64,-121.64z"/>
     <path class="fil1 str1" d="M237.35 155.34c146.56,0 293.13,0 439.69,0 56.5,0 102.72,46.22 102.72,102.72 0,152.98 0,305.96 0,458.94 0,56.5 -46.22,102.72 -102.72,102.72 -152.98,0 -305.96,0 -458.94,0 -56.5,0 -102.72,-46.23 -102.72,-102.72 0,-146.56 0,-293.13 0,-439.69 0,-67.08 54.89,-121.97 121.97,-121.97z"/>
     <path class="fil1 str1" d="M235.44 158.42c146.36,0 292.71,0 439.07,0 56.47,0 102.67,46.2 102.67,102.67 0,152.9 0,305.8 0,458.7 0,56.47 -46.2,102.67 -102.67,102.67 -152.9,0 -305.8,0 -458.7,0 -56.47,0 -102.67,-46.2 -102.67,-102.67 0,-146.35 0,-292.71 0,-439.06 0,-67.27 55.03,-122.3 122.3,-122.3z"/>
     <path class="fil1 str1" d="M233.53 161.5c146.15,0 292.29,0 438.44,0 56.44,0 102.62,46.18 102.62,102.62 0,152.82 0,305.64 0,458.45 0,56.44 -46.18,102.62 -102.62,102.62 -152.82,0 -305.64,0 -458.46,0 -56.44,0 -102.62,-46.18 -102.62,-102.62 0,-146.15 0,-292.29 0,-438.44 0,-67.45 55.18,-122.63 122.63,-122.63z"/>
     <path class="fil1 str1" d="M231.63 164.59c145.94,0 291.88,0 437.81,0 56.41,0 102.56,46.15 102.56,102.56 0,152.74 0,305.48 0,458.21 0,56.41 -46.15,102.56 -102.56,102.56 -152.74,0 -305.48,0 -458.21,0 -56.41,0 -102.56,-46.15 -102.56,-102.56 0,-145.94 0,-291.87 0,-437.81 0,-67.63 55.33,-122.96 122.96,-122.96z"/>
     <path class="fil1 str1" d="M229.71 167.67c145.73,0 291.46,0 437.19,0 56.38,0 102.51,46.13 102.51,102.51 0,152.66 0,305.32 0,457.97 0,56.38 -46.13,102.51 -102.51,102.51 -152.66,0 -305.31,0 -457.97,0 -56.38,0 -102.51,-46.13 -102.51,-102.51 0,-145.73 0,-291.46 0,-437.19 0,-67.81 55.48,-123.29 123.29,-123.29z"/>
     <path class="fil1 str1" d="M227.81 170.76c145.52,0 291.04,0 436.56,0 56.35,0 102.45,46.1 102.45,102.45 0,152.58 0,305.16 0,457.73 0,56.35 -46.1,102.45 -102.45,102.45 -152.58,0 -305.15,0 -457.73,0 -56.35,0 -102.45,-46.1 -102.45,-102.45 0,-145.52 0,-291.04 0,-436.56 0,-68 55.63,-123.63 123.63,-123.63z"/>
     <path class="fil1 str1" d="M225.9 173.84c145.31,0 290.62,0 435.93,0 56.32,0 102.4,46.08 102.4,102.4 0,152.5 0,304.99 0,457.49 0,56.32 -46.08,102.4 -102.4,102.4 -152.5,0 -304.99,0 -457.49,0 -56.32,0 -102.4,-46.08 -102.4,-102.4 0,-145.31 0,-290.62 0,-435.93 0,-68.18 55.78,-123.96 123.96,-123.96z"/>
     <path class="fil1 str1" d="M223.99 176.93c145.1,0 290.21,0 435.31,0 56.29,0 102.35,46.06 102.35,102.35 0,152.42 0,304.83 0,457.25 0,56.29 -46.05,102.35 -102.35,102.35 -152.42,0 -304.83,0 -457.25,0 -56.29,0 -102.35,-46.05 -102.35,-102.35 0,-145.1 0,-290.2 0,-435.31 0,-68.36 55.93,-124.29 124.29,-124.29z"/>
     <path class="fil1 str1" d="M222.08 180.01c144.89,0 289.79,0 434.68,0 56.26,0 102.29,46.03 102.29,102.29 0,152.34 0,304.67 0,457.01 0,56.26 -46.03,102.29 -102.29,102.29 -152.34,0 -304.67,0 -457.01,0 -56.26,0 -102.29,-46.03 -102.29,-102.29 0,-144.89 0,-289.79 0,-434.68 0,-68.54 56.08,-124.62 124.62,-124.62z"/>
     <path class="fil1 str1" d="M220.17 183.1c144.69,0 289.37,0 434.06,0 56.23,0 102.24,46.01 102.24,102.24 0,152.26 0,304.51 0,456.77 0,56.23 -46.01,102.24 -102.24,102.24 -152.26,0 -304.51,0 -456.77,0 -56.23,0 -102.24,-46.01 -102.24,-102.24 0,-144.69 0,-289.37 0,-434.06 0,-68.72 56.23,-124.95 124.95,-124.95z"/>
     <path class="fil1 str1" d="M218.26 186.18c144.48,0 288.95,0 433.43,0 56.2,0 102.18,45.98 102.18,102.18 0,152.18 0,304.35 0,456.53 0,56.2 -45.98,102.18 -102.18,102.18 -152.18,0 -304.35,0 -456.53,0 -56.2,0 -102.18,-45.98 -102.18,-102.18 0,-144.48 0,-288.95 0,-433.43 0,-68.91 56.38,-125.28 125.28,-125.28z"/>
     <path class="fil1 str1" d="M216.35 189.26c144.27,0 288.54,0 432.8,0 56.17,0 102.13,45.96 102.13,102.13 0,152.1 0,304.19 0,456.28 0,56.17 -45.96,102.13 -102.13,102.13 -152.1,0 -304.19,0 -456.28,0 -56.17,0 -102.13,-45.96 -102.13,-102.13 0,-144.27 0,-288.54 0,-432.8 0,-69.09 56.52,-125.61 125.61,-125.61z"/>
     <path class="fil1 str1" d="M214.44 192.35c144.06,0 288.12,0 432.18,0 56.14,0 102.08,45.93 102.08,102.08 0,152.02 0,304.03 0,456.04 0,56.14 -45.93,102.08 -102.08,102.08 -152.01,0 -304.03,0 -456.04,0 -56.14,0 -102.08,-45.93 -102.08,-102.08 0,-144.06 0,-288.12 0,-432.18 0,-69.27 56.67,-125.94 125.94,-125.94z"/>
     <path class="fil1 str1" d="M212.53 195.43c143.85,0 287.7,0 431.55,0 56.11,0 102.02,45.91 102.02,102.02 0,151.93 0,303.87 0,455.8 0,56.11 -45.91,102.02 -102.02,102.02 -151.93,0 -303.87,0 -455.8,0 -56.11,0 -102.02,-45.91 -102.02,-102.02 0,-143.85 0,-287.7 0,-431.55 0,-69.45 56.82,-126.27 126.27,-126.27z"/>
     <path class="fil1 str1" d="M210.62 198.52c143.64,0 287.28,0 430.92,0 56.08,0 101.97,45.88 101.97,101.97 0,151.85 0,303.71 0,455.56 0,56.08 -45.89,101.97 -101.97,101.97 -151.85,0 -303.71,0 -455.56,0 -56.08,0 -101.97,-45.88 -101.97,-101.97 0,-143.64 0,-287.28 0,-430.92 0,-69.63 56.97,-126.6 126.6,-126.6z"/>
     <path class="fil1 str1" d="M208.71 201.6c143.43,0 286.87,0 430.3,0 56.05,0 101.91,45.86 101.91,101.91 0,151.77 0,303.55 0,455.32 0,56.05 -45.86,101.91 -101.91,101.91 -151.77,0 -303.54,0 -455.32,0 -56.05,0 -101.91,-45.86 -101.91,-101.91 0,-143.43 0,-286.87 0,-430.3 0,-69.81 57.12,-126.93 126.94,-126.93z"/>
     <path class="fil1 str1" d="M206.8 204.69c143.22,0 286.45,0 429.67,0 56.02,0 101.86,45.84 101.86,101.86 0,151.69 0,303.39 0,455.08 0,56.02 -45.84,101.86 -101.86,101.86 -151.69,0 -303.39,0 -455.08,0 -56.02,0 -101.86,-45.84 -101.86,-101.86 0,-143.22 0,-286.45 0,-429.67 0,-70 57.27,-127.27 127.27,-127.27z"/>
     <path class="fil1 str1" d="M204.89 207.77c143.02,0 286.03,0 429.05,0 55.99,0 101.81,45.81 101.81,101.81 0,151.61 0,303.23 0,454.84 0,55.99 -45.81,101.81 -101.81,101.81 -151.61,0 -303.23,0 -454.84,0 -55.99,0 -101.81,-45.81 -101.81,-101.81 0,-143.02 0,-286.03 0,-429.05 0,-70.18 57.42,-127.6 127.6,-127.6z"/>
     <path class="fil1 str1" d="M202.98 210.86c142.81,0 285.61,0 428.42,0 55.96,0 101.75,45.79 101.75,101.75 0,151.53 0,303.06 0,454.6 0,55.96 -45.79,101.75 -101.75,101.75 -151.53,0 -303.06,0 -454.6,0 -55.96,0 -101.75,-45.79 -101.75,-101.75 0,-142.81 0,-285.61 0,-428.42 0,-70.36 57.57,-127.93 127.93,-127.93z"/>
     <path class="fil1 str1" d="M201.07 213.94c142.6,0 285.2,0 427.79,0 55.93,0 101.7,45.76 101.7,101.7 0,151.45 0,302.9 0,454.35 0,55.94 -45.76,101.7 -101.7,101.7 -151.45,0 -302.9,0 -454.35,0 -55.93,0 -101.7,-45.76 -101.7,-101.7 0,-142.6 0,-285.2 0,-427.79 0,-70.54 57.72,-128.26 128.26,-128.26z"/>
     <path class="fil1 str1" d="M199.16 217.02c142.39,0 284.78,0 427.17,0 55.91,0 101.64,45.74 101.64,101.64 0,151.37 0,302.74 0,454.11 0,55.91 -45.74,101.64 -101.64,101.64 -151.37,0 -302.74,0 -454.11,0 -55.9,0 -101.64,-45.74 -101.64,-101.64 0,-142.39 0,-284.78 0,-427.17 0,-70.72 57.86,-128.59 128.59,-128.59z"/>
     <path class="fil1 str1" d="M197.25 220.11c142.18,0 284.36,0 426.54,0 55.88,0 101.59,45.71 101.59,101.59 0,151.29 0,302.58 0,453.87 0,55.88 -45.71,101.59 -101.59,101.59 -151.29,0 -302.58,0 -453.87,0 -55.88,0 -101.59,-45.71 -101.59,-101.59 0,-142.18 0,-284.36 0,-426.54 0,-70.91 58.01,-128.92 128.92,-128.92z"/>
     <path class="fil1 str1" d="M195.34 223.19c141.97,0 283.94,0 425.92,0 55.85,0 101.54,45.69 101.54,101.54 0,151.21 0,302.42 0,453.63 0,55.85 -45.69,101.54 -101.54,101.54 -151.21,0 -302.42,0 -453.63,0 -55.85,0 -101.54,-45.69 -101.54,-101.54 0,-141.97 0,-283.94 0,-425.92 0,-71.09 58.16,-129.25 129.25,-129.25z"/>
     <path class="fil1 str1" d="M193.43 226.28c141.76,0 283.53,0 425.29,0 55.82,0 101.48,45.67 101.48,101.48 0,151.13 0,302.26 0,453.39 0,55.82 -45.67,101.48 -101.48,101.48 -151.13,0 -302.26,0 -453.39,0 -55.82,0 -101.48,-45.67 -101.48,-101.48 0,-141.76 0,-283.53 0,-425.29 0,-71.27 58.31,-129.58 129.58,-129.58z"/>
     <path class="fil1 str1" d="M191.52 229.36c141.55,0 283.11,0 424.66,0 55.79,0 101.43,45.64 101.43,101.43 0,151.05 0,302.1 0,453.15 0,55.79 -45.64,101.43 -101.43,101.43 -151.05,0 -302.1,0 -453.15,0 -55.79,0 -101.43,-45.64 -101.43,-101.43 0,-141.55 0,-283.11 0,-424.66 0,-71.45 58.46,-129.91 129.91,-129.91z"/>
     <path class="fil1 str1" d="M189.61 232.45c141.35,0 282.69,0 424.04,0 55.76,0 101.37,45.62 101.37,101.37 0,150.97 0,301.94 0,452.91 0,55.76 -45.62,101.37 -101.37,101.37 -150.97,0 -301.94,0 -452.91,0 -55.76,0 -101.37,-45.62 -101.37,-101.37 0,-141.34 0,-282.69 0,-424.04 0,-71.64 58.61,-130.24 130.24,-130.24z"/>
     <path class="fil1 str1" d="M187.7 235.53c141.14,0 282.27,0 423.41,0 55.73,0 101.32,45.59 101.32,101.32 0,150.89 0,301.78 0,452.67 0,55.73 -45.59,101.32 -101.32,101.32 -150.89,0 -301.78,0 -452.67,0 -55.73,0 -101.32,-45.59 -101.32,-101.32 0,-141.14 0,-282.27 0,-423.41 0,-71.82 58.76,-130.57 130.58,-130.57z"/>
     <path class="fil1 str1" d="M185.79 238.62c140.93,0 281.86,0 422.78,0 55.7,0 101.27,45.57 101.27,101.27 0,150.81 0,301.62 0,452.43 0,55.7 -45.57,101.27 -101.27,101.27 -150.81,0 -301.62,0 -452.43,0 -55.7,0 -101.27,-45.57 -101.27,-101.27 0,-140.93 0,-281.86 0,-422.79 0,-72 58.91,-130.91 130.91,-130.91z"/>
     <path class="fil1 str1" d="M183.88 241.7c140.72,0 281.44,0 422.16,0 55.67,0 101.21,45.55 101.21,101.21 0,150.73 0,301.46 0,452.18 0,55.67 -45.55,101.21 -101.21,101.21 -150.73,0 -301.46,0 -452.18,0 -55.67,0 -101.21,-45.55 -101.21,-101.21 0,-140.72 0,-281.44 0,-422.16 0,-72.18 59.06,-131.24 131.24,-131.24z"/>
     <path class="fil1 str1" d="M181.97 244.78c140.51,0 281.02,0 421.53,0 55.64,0 101.16,45.52 101.16,101.16 0,150.65 0,301.3 0,451.94 0,55.64 -45.52,101.16 -101.16,101.16 -150.65,0 -301.29,0 -451.94,0 -55.64,0 -101.16,-45.52 -101.16,-101.16 0,-140.51 0,-281.02 0,-421.53 0,-72.36 59.2,-131.57 131.57,-131.57z"/>
     <path class="fil1 str1" d="M180.06 247.87c140.3,0 280.6,0 420.91,0 55.61,0 101.11,45.5 101.11,101.11 0,150.57 0,301.13 0,451.7 0,55.61 -45.5,101.1 -101.11,101.1 -150.57,0 -301.13,0 -451.7,0 -55.61,0 -101.11,-45.5 -101.11,-101.1 0,-140.3 0,-280.6 0,-420.91 0,-72.55 59.35,-131.9 131.9,-131.9z"/>
     <path class="fil1 str1" d="M178.15 250.95c140.09,0 280.19,0 420.28,0 55.58,0 101.05,45.47 101.05,101.05 0,150.49 0,300.97 0,451.46 0,55.58 -45.47,101.05 -101.05,101.05 -150.49,0 -300.97,0 -451.46,0 -55.58,0 -101.05,-45.47 -101.05,-101.05 0,-140.09 0,-280.19 0,-420.28 0,-72.73 59.5,-132.23 132.23,-132.23z"/>
     <path class="fil1 str1" d="M176.24 254.04c139.89,0 279.77,0 419.65,0 55.55,0 101,45.45 101,101 0,150.41 0,300.81 0,451.22 0,55.55 -45.45,101 -101,101 -150.41,0 -300.81,0 -451.22,0 -55.55,0 -101,-45.45 -101,-101 0,-139.88 0,-279.77 0,-419.65 0,-72.91 59.65,-132.56 132.56,-132.56z"/>
     <path class="fil1 str1" d="M174.33 257.12c139.68,0 279.35,0 419.03,0 55.52,0 100.94,45.42 100.94,100.94 0,150.33 0,300.65 0,450.98 0,55.52 -45.42,100.94 -100.94,100.94 -150.33,0 -300.65,0 -450.98,0 -55.52,0 -100.94,-45.42 -100.94,-100.94 0,-139.68 0,-279.35 0,-419.03 0,-73.09 59.8,-132.89 132.89,-132.89z"/>
     <path class="fil1 str1" d="M172.42 260.21c139.47,0 278.94,0 418.4,0 55.49,0 100.89,45.4 100.89,100.89 0,150.25 0,300.49 0,450.74 0,55.49 -45.4,100.89 -100.89,100.89 -150.25,0 -300.49,0 -450.74,0 -55.49,0 -100.89,-45.4 -100.89,-100.89 0,-139.47 0,-278.93 0,-418.4 0,-73.27 59.95,-133.22 133.22,-133.22z"/>
     <path class="fil1 str1" d="M170.51 263.29c139.26,0 278.52,0 417.78,0 55.46,0 100.84,45.38 100.84,100.84 0,150.17 0,300.33 0,450.49 0,55.46 -45.38,100.84 -100.84,100.84 -150.16,0 -300.33,0 -450.49,0 -55.46,0 -100.84,-45.38 -100.84,-100.84 0,-139.26 0,-278.52 0,-417.78 0,-73.45 60.1,-133.55 133.55,-133.55z"/>
     <path class="fil1 str1" d="M168.61 266.38c139.05,0 278.1,0 417.15,0 55.43,0 100.78,45.35 100.78,100.78 0,150.09 0,300.17 0,450.25 0,55.43 -45.35,100.78 -100.78,100.78 -150.08,0 -300.17,0 -450.25,0 -55.43,0 -100.78,-45.35 -100.78,-100.78 0,-139.05 0,-278.1 0,-417.15 0,-73.64 60.25,-133.88 133.88,-133.88z"/>
     <path class="fil1 str1" d="M166.7 269.46c138.84,0 277.68,0 416.52,0 55.4,0 100.73,45.33 100.73,100.73 0,150 0,300.01 0,450.01 0,55.4 -45.33,100.73 -100.73,100.73 -150,0 -300.01,0 -450.01,0 -55.4,0 -100.73,-45.33 -100.73,-100.73 0,-138.84 0,-277.68 0,-416.52 0,-73.82 60.4,-134.22 134.22,-134.22z"/>
     <path class="fil1 str1" d="M164.78 272.54c138.63,0 277.27,0 415.9,0 55.37,0 100.67,45.3 100.67,100.67 0,149.92 0,299.85 0,449.77 0,55.37 -45.3,100.67 -100.67,100.67 -149.92,0 -299.85,0 -449.77,0 -55.37,0 -100.67,-45.3 -100.67,-100.67 0,-138.63 0,-277.26 0,-415.9 0,-74 60.55,-134.55 134.55,-134.55z"/>
     <path class="fil1 str1" d="M162.88 275.63c138.42,0 276.85,0 415.27,0 55.34,0 100.62,45.28 100.62,100.62 0,149.84 0,299.69 0,449.53 0,55.34 -45.28,100.62 -100.62,100.62 -149.84,0 -299.69,0 -449.53,0 -55.34,0 -100.62,-45.28 -100.62,-100.62 0,-138.42 0,-276.85 0,-415.27 0,-74.18 60.7,-134.88 134.88,-134.88z"/>
     <path class="fil1 str1" d="M160.97 278.71c138.22,0 276.43,0 414.65,0 55.31,0 100.56,45.25 100.56,100.57 0,149.76 0,299.53 0,449.29 0,55.31 -45.25,100.57 -100.56,100.57 -149.76,0 -299.53,0 -449.29,0 -55.31,0 -100.57,-45.25 -100.57,-100.57 0,-138.21 0,-276.43 0,-414.64 0,-74.37 60.84,-135.21 135.21,-135.21z"/>
     <path class="fil1 str1" d="M159.06 281.8c138.01,0 276.01,0 414.02,0 55.28,0 100.51,45.23 100.51,100.51 0,149.68 0,299.37 0,449.05 0,55.28 -45.23,100.51 -100.51,100.51 -149.68,0 -299.37,0 -449.05,0 -55.28,0 -100.51,-45.23 -100.51,-100.51 0,-138.01 0,-276.01 0,-414.02 0,-74.55 60.99,-135.54 135.54,-135.54z"/>
     <path class="fil1 str1" d="M157.15 284.88c137.8,0 275.6,0 413.39,0 55.25,0 100.46,45.21 100.46,100.46 0,149.6 0,299.21 0,448.81 0,55.25 -45.21,100.46 -100.46,100.46 -149.6,0 -299.2,0 -448.81,0 -55.25,0 -100.46,-45.21 -100.46,-100.46 0,-137.8 0,-275.6 0,-413.39 0,-74.73 61.14,-135.87 135.87,-135.87z"/>
     <path class="fil1 str1" d="M155.24 287.97c137.59,0 275.18,0 412.77,0 55.22,0 100.4,45.18 100.4,100.4 0,149.52 0,299.04 0,448.57 0,55.22 -45.18,100.4 -100.4,100.4 -149.52,0 -299.04,0 -448.57,0 -55.22,0 -100.4,-45.18 -100.4,-100.4 0,-137.59 0,-275.18 0,-412.77 0,-74.91 61.29,-136.2 136.2,-136.2z"/>
     <path class="fil1 str1" d="M153.33 291.05c137.38,0 274.76,0 412.14,0 55.19,0 100.35,45.16 100.35,100.35 0,149.44 0,298.88 0,448.32 0,55.19 -45.16,100.35 -100.35,100.35 -149.44,0 -298.88,0 -448.32,0 -55.19,0 -100.35,-45.16 -100.35,-100.35 0,-137.38 0,-274.76 0,-412.14 0,-75.09 61.44,-136.53 136.53,-136.53z"/>
     <path class="fil1 str1" d="M151.42 294.14c137.17,0 274.34,0 411.51,0 55.16,0 100.3,45.13 100.3,100.3 0,149.36 0,298.72 0,448.08 0,55.16 -45.13,100.29 -100.3,100.29 -149.36,0 -298.72,0 -448.08,0 -55.16,0 -100.29,-45.13 -100.29,-100.29 0,-137.17 0,-274.34 0,-411.51 0,-75.28 61.59,-136.86 136.86,-136.86z"/>
     <path class="fil1 str1" d="M149.51 297.22c136.96,0 273.93,0 410.89,0 55.13,0 100.24,45.11 100.24,100.24 0,149.28 0,298.56 0,447.84 0,55.13 -45.11,100.24 -100.24,100.24 -149.28,0 -298.56,0 -447.84,0 -55.13,0 -100.24,-45.11 -100.24,-100.24 0,-136.96 0,-273.93 0,-410.89 0,-75.46 61.74,-137.19 137.19,-137.19z"/>
     <path class="fil1 str1" d="M147.6 300.31c136.75,0 273.51,0 410.26,0 55.1,0 100.19,45.08 100.19,100.19 0,149.2 0,298.4 0,447.6 0,55.1 -45.08,100.19 -100.19,100.19 -149.2,0 -298.4,0 -447.6,0 -55.1,0 -100.19,-45.08 -100.19,-100.19 0,-136.75 0,-273.51 0,-410.26 0,-75.64 61.89,-137.52 137.53,-137.52z"/>
     <path class="fil1 str1" d="M145.69 303.39c136.55,0 273.09,0 409.64,0 55.07,0 100.13,45.06 100.13,100.13 0,149.12 0,298.24 0,447.36 0,55.07 -45.06,100.13 -100.13,100.13 -149.12,0 -298.24,0 -447.36,0 -55.07,0 -100.13,-45.06 -100.13,-100.13 0,-136.55 0,-273.09 0,-409.64 0,-75.82 62.03,-137.86 137.86,-137.86z"/>
     <path class="fil1 str1" d="M143.78 306.47c136.34,0 272.67,0 409.01,0 55.04,0 100.08,45.04 100.08,100.08 0,149.04 0,298.08 0,447.12 0,55.04 -45.04,100.08 -100.08,100.08 -149.04,0 -298.08,0 -447.12,0 -55.04,0 -100.08,-45.04 -100.08,-100.08 0,-136.34 0,-272.67 0,-409.01 0,-76 62.18,-138.19 138.19,-138.19z"/>
     <path class="fil1 str1" d="M141.87 309.56c136.13,0 272.26,0 408.38,0 55.01,0 100.02,45.01 100.02,100.03 0,148.96 0,297.92 0,446.88 0,55.01 -45.01,100.03 -100.02,100.03 -148.96,0 -297.92,0 -446.88,0 -55.01,0 -100.03,-45.01 -100.03,-100.03 0,-136.13 0,-272.26 0,-408.38 0,-76.19 62.33,-138.52 138.52,-138.52z"/>
    </g>
    <path class="fil0 str0" d="M139.96 312.64l407.76 0c54.98,0 99.97,44.99 99.97,99.97l0 446.64c0,54.98 -44.99,99.97 -99.97,99.97l-446.64 0c-54.98,0 -99.97,-44.99 -99.97,-99.97l0 -407.76c0,-76.37 62.48,-138.85 138.85,-138.85z"/>
   </g>
   <path class="fil2" d="M576.31 112.86c28.11,0 54.41,1.8 78.92,5.4 24.51,3.6 42.07,7.28 52.7,11.05l15.42 5.66 0 147.04c-27.76,-12.68 -65.81,-19.02 -114.14,-19.02l0 13.37c44.56,3.43 76.61,12.34 96.14,26.73 19.54,14.4 29.31,36.16 29.31,65.29 0,34.96 -14.22,62.04 -42.67,81.23 -28.45,19.19 -72.32,28.79 -131.62,28.79 -33.93,0 -63.92,-1.97 -89.97,-5.91 -26.05,-3.94 -43.53,-7.8 -52.44,-11.57l-13.88 -6.17 0 -128.02c3.08,1.37 7.71,3.26 13.88,5.66 6.17,2.4 19.96,5.48 41.39,9.25 21.42,3.77 44.47,5.66 69.15,5.66l0 -12.34c-41.82,-3.08 -73.35,-12 -94.6,-26.73 -21.25,-14.74 -31.88,-40.44 -31.88,-77.12 0,-36.67 14.57,-65.55 43.7,-86.63 29.13,-21.08 72.66,-31.62 130.59,-31.62z"/>
  </g>
 </g>
</svg>
